<svg width="512" height="512" viewBox="0 0 512 512" xmlns="http://www.w3.org/2000/svg">
  <!-- Shiden LifeLogger ホーム画面アイコン（icon-192.png / icon-512.png）のマスターSVG。
       紫電Expense の docs/icon.svg を基に、雷・背景・グラデーションはそのまま流用し、
       背後の「領収書」を「人体シルエット（-23.4°傾き・雷が身体を貫く構図）」に差し替えたもの。
       PNGを再生成する場合はこのSVGを512px/192pxでラスタライズする。 -->
  <defs>
    <radialGradient id="bgr" cx="0.5" cy="0.3" r="1.0">
      <stop offset="0" stop-color="#4d357e"/>
      <stop offset="0.55" stop-color="#35245c"/>
      <stop offset="1" stop-color="#1d1136"/>
    </radialGradient>
    <linearGradient id="bolt" x1="0" y1="0" x2="0" y2="1">
      <stop offset="0" stop-color="#fde047"/><stop offset="0.5" stop-color="#f59e0b"/><stop offset="1" stop-color="#d97706"/>
    </linearGradient>
    <linearGradient id="edge" x1="0" y1="0" x2="1" y2="1">
      <stop offset="0" stop-color="#a855f7"/><stop offset="1" stop-color="#6d28d9"/>
    </linearGradient>
    <filter id="sh" x="-30%" y="-30%" width="160%" height="160%">
      <feDropShadow dx="0" dy="10" stdDeviation="18" flood-color="#7c3aed" flood-opacity="0.6"/>
    </filter>
  </defs>
  <rect width="512" height="512" fill="url(#bgr)"/>
  <!-- 人体シルエット（頭・肩・腕・胴・脚が一体の塗り。角は同色の丸ストロークで丸める。
       領収書と同じ -23.4° 傾き＋中心基準で1.12倍。雷がこの身体を貫く構図） -->
  <g transform="rotate(-23.4 256 256) translate(256 256) scale(1.12) translate(-256 -256)" opacity="0.97"
     fill="#efeaf7" stroke="#efeaf7" stroke-width="34" stroke-linejoin="round" stroke-linecap="round">
    <circle cx="256" cy="102" r="46" stroke="none"/>
    <path d="M256 150 C222 150 206 166 202 196 L192 280 C190 294 210 298 214 286 L228 214 C230 244 232 268 234 300 L224 440 L246 440 L252 332 L256 326 L260 332 L266 440 L288 440 L278 300 C280 268 282 244 284 214 L298 286 C302 298 322 294 320 280 L310 196 C306 166 290 150 256 150 Z"/>
  </g>
  <!-- 雷（紫電Expense と完全に同一） -->
  <g transform="translate(48 56) scale(0.78)" filter="url(#sh)">
    <path d="M296 36 L138 296 L238 296 L198 476 L396 208 L286 208 L352 36 Z" fill="none" stroke="#f5f2fa" stroke-width="72" stroke-linejoin="round"/>
    <path d="M296 36 L138 296 L238 296 L198 476 L396 208 L286 208 L352 36 Z" fill="url(#bolt)" stroke="url(#edge)" stroke-width="40" stroke-linejoin="round"/>
  </g>
</svg>
